<svg id="Layer_1" data-name="Layer 1" xmlns="http://www.w3.org/2000/svg" viewBox="0 0 350 350"><path d="M219.41,110.34A110.48,110.48,0,0,1,217,133.28a110.11,110.11,0,0,1,111.36,42.34A110,110,0,0,0,174.62,21.75,109.85,109.85,0,0,1,219.41,110.34Z" style="fill:#fff"/><path d="M219.41,110.34A110.48,110.48,0,0,1,217,133.28a110.11,110.11,0,0,1,111.36,42.34A110,110,0,0,0,174.62,21.75,109.85,109.85,0,0,1,219.41,110.34Z" style="fill:#70c1be;opacity:0.6000000238418579"/><path d="M219.41,110.34A110.48,110.48,0,0,1,217,133.28a110.11,110.11,0,0,1,111.36,42.34A110,110,0,0,0,174.62,21.75,109.85,109.85,0,0,1,219.41,110.34Z" style="fill:#70c1be;opacity:0.6000000238418579"/><path d="M130.83,239.9a110.41,110.41,0,0,1,2.4-22.94,110.1,110.1,0,0,1-111.12-42A110,110,0,0,0,175.86,328.66,109.85,109.85,0,0,1,130.83,239.9Z" style="fill:#fff"/><path d="M130.83,239.9a110.41,110.41,0,0,1,2.4-22.94,110.1,110.1,0,0,1-111.12-42A110,110,0,0,0,175.86,328.66,109.85,109.85,0,0,1,130.83,239.9Z" style="fill:#1d6a9f;opacity:0.20000000298023224"/><path d="M130.83,239.9a110.41,110.41,0,0,1,2.4-22.94,110.1,110.1,0,0,1-111.12-42A110,110,0,0,0,175.86,328.66,109.85,109.85,0,0,1,130.83,239.9Z" style="fill:#1d6a9f;opacity:0.5"/><path d="M239.83,219.34a110.8,110.8,0,0,1-22.32-2.27,110.2,110.2,0,0,1-42.65,111.59,110,110,0,0,0,153.5-154A109.83,109.83,0,0,1,239.83,219.34Z" style="fill:#fff"/><path d="M239.83,219.34a110.8,110.8,0,0,1-22.32-2.27,110.2,110.2,0,0,1-42.65,111.59,110,110,0,0,0,153.5-154A109.83,109.83,0,0,1,239.83,219.34Z" style="fill:#55207a;opacity:0.5"/><path d="M239.83,219.34a110.8,110.8,0,0,1-22.32-2.27,110.2,110.2,0,0,1-42.65,111.59,110,110,0,0,0,153.5-154A109.83,109.83,0,0,1,239.83,219.34Z" style="fill:#55207a;opacity:0.20000000298023224"/><path d="M239.83,129.9A110.1,110.1,0,0,0,217,132.28a109.37,109.37,0,0,1-18.82,42,109.58,109.58,0,0,1,19.33,42.78,110.14,110.14,0,0,0,110.85-42.45A109.8,109.8,0,0,0,239.83,129.9Z" style="fill:#fff"/><path d="M239.83,129.9A110.1,110.1,0,0,0,217,132.28a109.37,109.37,0,0,1-18.82,42,109.58,109.58,0,0,1,19.33,42.78,110.14,110.14,0,0,0,110.85-42.45A109.8,109.8,0,0,0,239.83,129.9Z" style="fill:#70c1be;opacity:0.6000000238418579"/><path d="M239.83,129.9A110.1,110.1,0,0,0,217,132.28a109.37,109.37,0,0,1-18.82,42,109.58,109.58,0,0,1,19.33,42.78,110.14,110.14,0,0,0,110.85-42.45A109.8,109.8,0,0,0,239.83,129.9Z" style="fill:#55207a;opacity:0.5"/><path d="M239.83,129.9A110.1,110.1,0,0,0,217,132.28a109.37,109.37,0,0,1-18.82,42,109.58,109.58,0,0,1,19.33,42.78,110.14,110.14,0,0,0,110.85-42.45A109.8,109.8,0,0,0,239.83,129.9Z" style="fill:#70c1be;opacity:0.6000000238418579"/><path d="M239.83,129.9A110.1,110.1,0,0,0,217,132.28a109.37,109.37,0,0,1-18.82,42,109.58,109.58,0,0,1,19.33,42.78,110.14,110.14,0,0,0,110.85-42.45A109.8,109.8,0,0,0,239.83,129.9Z" style="fill:#55207a;opacity:0.20000000298023224"/><path d="M219.88,239.9a110.72,110.72,0,0,0-2.37-22.83,109.52,109.52,0,0,1-42.89-19.15,109.31,109.31,0,0,1-42.39,19,110.14,110.14,0,0,0,42.63,111.7A109.84,109.84,0,0,0,219.88,239.9Z" style="fill:#fff"/><path d="M219.88,239.9a110.72,110.72,0,0,0-2.37-22.83,109.52,109.52,0,0,1-42.89-19.15,109.31,109.31,0,0,1-42.39,19,110.14,110.14,0,0,0,42.63,111.7A109.84,109.84,0,0,0,219.88,239.9Z" style="fill:#55207a;opacity:0.5"/><path d="M219.88,239.9a110.72,110.72,0,0,0-2.37-22.83,109.52,109.52,0,0,1-42.89-19.15,109.31,109.31,0,0,1-42.39,19,110.14,110.14,0,0,0,42.63,111.7A109.84,109.84,0,0,0,219.88,239.9Z" style="fill:#1d6a9f;opacity:0.20000000298023224"/><path d="M219.88,239.9a110.72,110.72,0,0,0-2.37-22.83,109.52,109.52,0,0,1-42.89-19.15,109.31,109.31,0,0,1-42.39,19,110.14,110.14,0,0,0,42.63,111.7A109.84,109.84,0,0,0,219.88,239.9Z" style="fill:#1d6a9f;opacity:0.5"/><path d="M219.88,239.9a110.72,110.72,0,0,0-2.37-22.83,109.52,109.52,0,0,1-42.89-19.15,109.31,109.31,0,0,1-42.39,19,110.14,110.14,0,0,0,42.63,111.7A109.84,109.84,0,0,0,219.88,239.9Z" style="fill:#55207a;opacity:0.20000000298023224"/><path d="M174.62,197.92a109.52,109.52,0,0,0,42.89,19.15,109.58,109.58,0,0,0-19.33-42.78A110.44,110.44,0,0,1,174.62,197.92Z" style="fill:#fff"/><path d="M174.62,197.92a109.52,109.52,0,0,0,42.89,19.15,109.58,109.58,0,0,0-19.33-42.78A110.44,110.44,0,0,1,174.62,197.92Z" style="fill:#70c1be;opacity:0.6000000238418579"/><path d="M174.62,197.92a109.52,109.52,0,0,0,42.89,19.15,109.58,109.58,0,0,0-19.33-42.78A110.44,110.44,0,0,1,174.62,197.92Z" style="fill:#55207a;opacity:0.5"/><path d="M174.62,197.92a109.52,109.52,0,0,0,42.89,19.15,109.58,109.58,0,0,0-19.33-42.78A110.44,110.44,0,0,1,174.62,197.92Z" style="fill:#1d6a9f;opacity:0.20000000298023224"/><path d="M174.62,197.92a109.52,109.52,0,0,0,42.89,19.15,109.58,109.58,0,0,0-19.33-42.78A110.44,110.44,0,0,1,174.62,197.92Z" style="fill:#70c1be;opacity:0.6000000238418579"/><path d="M174.62,197.92a109.52,109.52,0,0,0,42.89,19.15,109.58,109.58,0,0,0-19.33-42.78A110.44,110.44,0,0,1,174.62,197.92Z" style="fill:#1d6a9f;opacity:0.5"/><path d="M174.62,197.92a109.52,109.52,0,0,0,42.89,19.15,109.58,109.58,0,0,0-19.33-42.78A110.44,110.44,0,0,1,174.62,197.92Z" style="fill:#55207a;opacity:0.20000000298023224"/><path d="M110.88,130.9a110.26,110.26,0,0,1,22.33,2.27A110.12,110.12,0,0,1,175.62,21.75,110,110,0,0,0,22.11,175.94,109.85,109.85,0,0,1,110.88,130.9Z" style="fill:#fff"/><path d="M110.88,130.9a110.26,110.26,0,0,1,22.33,2.27A110.12,110.12,0,0,1,175.62,21.75,110,110,0,0,0,22.11,175.94,109.85,109.85,0,0,1,110.88,130.9Z" style="fill:#68b7e8;opacity:0.699999988079071"/><path d="M110.88,130.9a110.26,110.26,0,0,1,22.33,2.27A110.12,110.12,0,0,1,175.62,21.75,110,110,0,0,0,22.11,175.94,109.85,109.85,0,0,1,110.88,130.9Z" style="fill:#68b7e8;opacity:0.30000001192092896"/><path d="M129.83,110.34a110.1,110.1,0,0,0,2.38,22.83,109.37,109.37,0,0,1,42.65,19A109.42,109.42,0,0,1,217,133.28,110.07,110.07,0,0,0,174.62,21.75,109.83,109.83,0,0,0,129.83,110.34Z" style="fill:#fff"/><path d="M129.83,110.34a110.1,110.1,0,0,0,2.38,22.83,109.37,109.37,0,0,1,42.65,19A109.42,109.42,0,0,1,217,133.28,110.07,110.07,0,0,0,174.62,21.75,109.83,109.83,0,0,0,129.83,110.34Z" style="fill:#68b7e8;opacity:0.699999988079071"/><path d="M129.83,110.34a110.1,110.1,0,0,0,2.38,22.83,109.37,109.37,0,0,1,42.65,19A109.42,109.42,0,0,1,217,133.28,110.07,110.07,0,0,0,174.62,21.75,109.83,109.83,0,0,0,129.83,110.34Z" style="fill:#70c1be;opacity:0.6000000238418579"/><path d="M129.83,110.34a110.1,110.1,0,0,0,2.38,22.83,109.37,109.37,0,0,1,42.65,19A109.42,109.42,0,0,1,217,133.28,110.07,110.07,0,0,0,174.62,21.75,109.83,109.83,0,0,0,129.83,110.34Z" style="fill:#70c1be;opacity:0.6000000238418579"/><path d="M129.83,110.34a110.1,110.1,0,0,0,2.38,22.83,109.37,109.37,0,0,1,42.65,19A109.42,109.42,0,0,1,217,133.28,110.07,110.07,0,0,0,174.62,21.75,109.83,109.83,0,0,0,129.83,110.34Z" style="fill:#68b7e8;opacity:0.30000001192092896"/><path d="M110.41,219.34A110.69,110.69,0,0,0,133.23,217a109.57,109.57,0,0,1,19.06-42.34,109.43,109.43,0,0,1-19.08-42.45,110.16,110.16,0,0,0-111.1,42.77A109.84,109.84,0,0,0,110.41,219.34Z" style="fill:#fff"/><path d="M110.41,219.34A110.69,110.69,0,0,0,133.23,217a109.57,109.57,0,0,1,19.06-42.34,109.43,109.43,0,0,1-19.08-42.45,110.16,110.16,0,0,0-111.1,42.77A109.84,109.84,0,0,0,110.41,219.34Z" style="fill:#68b7e8;opacity:0.699999988079071"/><path d="M110.41,219.34A110.69,110.69,0,0,0,133.23,217a109.57,109.57,0,0,1,19.06-42.34,109.43,109.43,0,0,1-19.08-42.45,110.16,110.16,0,0,0-111.1,42.77A109.84,109.84,0,0,0,110.41,219.34Z" style="fill:#1d6a9f;opacity:0.20000000298023224"/><path d="M110.41,219.34A110.69,110.69,0,0,0,133.23,217a109.57,109.57,0,0,1,19.06-42.34,109.43,109.43,0,0,1-19.08-42.45,110.16,110.16,0,0,0-111.1,42.77A109.84,109.84,0,0,0,110.41,219.34Z" style="fill:#1d6a9f;opacity:0.5"/><path d="M110.41,219.34A110.69,110.69,0,0,0,133.23,217a109.57,109.57,0,0,1,19.06-42.34,109.43,109.43,0,0,1-19.08-42.45,110.16,110.16,0,0,0-111.1,42.77A109.84,109.84,0,0,0,110.41,219.34Z" style="fill:#68b7e8;opacity:0.30000001192092896"/><path d="M174.86,151.14a109.37,109.37,0,0,0-42.65-19,109.43,109.43,0,0,0,19.08,42.45A110.48,110.48,0,0,1,174.86,151.14Z" style="fill:#fff"/><path d="M174.86,151.14a109.37,109.37,0,0,0-42.65-19,109.43,109.43,0,0,0,19.08,42.45A110.48,110.48,0,0,1,174.86,151.14Z" style="fill:#68b7e8;opacity:0.699999988079071"/><path d="M174.86,151.14a109.37,109.37,0,0,0-42.65-19,109.43,109.43,0,0,0,19.08,42.45A110.48,110.48,0,0,1,174.86,151.14Z" style="fill:#70c1be;opacity:0.6000000238418579"/><path d="M174.86,151.14a109.37,109.37,0,0,0-42.65-19,109.43,109.43,0,0,0,19.08,42.45A110.48,110.48,0,0,1,174.86,151.14Z" style="fill:#1d6a9f;opacity:0.20000000298023224"/><path d="M174.86,151.14a109.37,109.37,0,0,0-42.65-19,109.43,109.43,0,0,0,19.08,42.45A110.48,110.48,0,0,1,174.86,151.14Z" style="fill:#70c1be;opacity:0.6000000238418579"/><path d="M174.86,151.14a109.37,109.37,0,0,0-42.65-19,109.43,109.43,0,0,0,19.08,42.45A110.48,110.48,0,0,1,174.86,151.14Z" style="fill:#1d6a9f;opacity:0.5"/><path d="M174.86,151.14a109.37,109.37,0,0,0-42.65-19,109.43,109.43,0,0,0,19.08,42.45A110.48,110.48,0,0,1,174.86,151.14Z" style="fill:#68b7e8;opacity:0.30000001192092896"/><path d="M198.18,174.29a109.37,109.37,0,0,0,18.82-42,109.42,109.42,0,0,0-42.14,18.86A110.55,110.55,0,0,1,198.18,174.29Z" style="fill:#fff"/><path d="M198.18,174.29a109.37,109.37,0,0,0,18.82-42,109.42,109.42,0,0,0-42.14,18.86A110.55,110.55,0,0,1,198.18,174.29Z" style="fill:#68b7e8;opacity:0.699999988079071"/><path d="M198.18,174.29a109.37,109.37,0,0,0,18.82-42,109.42,109.42,0,0,0-42.14,18.86A110.55,110.55,0,0,1,198.18,174.29Z" style="fill:#70c1be;opacity:0.6000000238418579"/><path d="M198.18,174.29a109.37,109.37,0,0,0,18.82-42,109.42,109.42,0,0,0-42.14,18.86A110.55,110.55,0,0,1,198.18,174.29Z" style="fill:#55207a;opacity:0.5"/><path d="M198.18,174.29a109.37,109.37,0,0,0,18.82-42,109.42,109.42,0,0,0-42.14,18.86A110.55,110.55,0,0,1,198.18,174.29Z" style="fill:#70c1be;opacity:0.6000000238418579"/><path d="M198.18,174.29a109.37,109.37,0,0,0,18.82-42,109.42,109.42,0,0,0-42.14,18.86A110.55,110.55,0,0,1,198.18,174.29Z" style="fill:#55207a;opacity:0.20000000298023224"/><path d="M198.18,174.29a109.37,109.37,0,0,0,18.82-42,109.42,109.42,0,0,0-42.14,18.86A110.55,110.55,0,0,1,198.18,174.29Z" style="fill:#68b7e8;opacity:0.30000001192092896"/><path d="M151.29,174.62A109.57,109.57,0,0,0,132.23,217a109.31,109.31,0,0,0,42.39-19A110.36,110.36,0,0,1,151.29,174.62Z" style="fill:#fff"/><path d="M151.29,174.62A109.57,109.57,0,0,0,132.23,217a109.31,109.31,0,0,0,42.39-19A110.36,110.36,0,0,1,151.29,174.62Z" style="fill:#68b7e8;opacity:0.699999988079071"/><path d="M151.29,174.62A109.57,109.57,0,0,0,132.23,217a109.31,109.31,0,0,0,42.39-19A110.36,110.36,0,0,1,151.29,174.62Z" style="fill:#55207a;opacity:0.5"/><path d="M151.29,174.62A109.57,109.57,0,0,0,132.23,217a109.31,109.31,0,0,0,42.39-19A110.36,110.36,0,0,1,151.29,174.62Z" style="fill:#1d6a9f;opacity:0.20000000298023224"/><path d="M151.29,174.62A109.57,109.57,0,0,0,132.23,217a109.31,109.31,0,0,0,42.39-19A110.36,110.36,0,0,1,151.29,174.62Z" style="fill:#1d6a9f;opacity:0.5"/><path d="M151.29,174.62A109.57,109.57,0,0,0,132.23,217a109.31,109.31,0,0,0,42.39-19A110.36,110.36,0,0,1,151.29,174.62Z" style="fill:#55207a;opacity:0.20000000298023224"/><path d="M151.29,174.62A109.57,109.57,0,0,0,132.23,217a109.31,109.31,0,0,0,42.39-19A110.36,110.36,0,0,1,151.29,174.62Z" style="fill:#68b7e8;opacity:0.30000001192092896"/><path d="M198.18,174.29a110.55,110.55,0,0,0-23.32-23.15,110.48,110.48,0,0,0-23.57,23.48,110.36,110.36,0,0,0,23.33,23.3A110.44,110.44,0,0,0,198.18,174.29Z" style="fill:#fff"/><path d="M198.18,174.29a110.55,110.55,0,0,0-23.32-23.15,110.48,110.48,0,0,0-23.57,23.48,110.36,110.36,0,0,0,23.33,23.3A110.44,110.44,0,0,0,198.18,174.29Z" style="fill:#68b7e8;opacity:0.699999988079071"/><path d="M198.18,174.29a110.55,110.55,0,0,0-23.32-23.15,110.48,110.48,0,0,0-23.57,23.48,110.36,110.36,0,0,0,23.33,23.3A110.44,110.44,0,0,0,198.18,174.29Z" style="fill:#70c1be;opacity:0.6000000238418579"/><path d="M198.18,174.29a110.55,110.55,0,0,0-23.32-23.15,110.48,110.48,0,0,0-23.57,23.48,110.36,110.36,0,0,0,23.33,23.3A110.44,110.44,0,0,0,198.18,174.29Z" style="fill:#55207a;opacity:0.5"/><path d="M198.18,174.29a110.55,110.55,0,0,0-23.32-23.15,110.48,110.48,0,0,0-23.57,23.48,110.36,110.36,0,0,0,23.33,23.3A110.44,110.44,0,0,0,198.18,174.29Z" style="fill:#1d6a9f;opacity:0.20000000298023224"/><path d="M198.18,174.29a110.55,110.55,0,0,0-23.32-23.15,110.48,110.48,0,0,0-23.57,23.48,110.36,110.36,0,0,0,23.33,23.3A110.44,110.44,0,0,0,198.18,174.29Z" style="fill:#70c1be;opacity:0.6000000238418579"/><path d="M198.18,174.29a110.55,110.55,0,0,0-23.32-23.15,110.48,110.48,0,0,0-23.57,23.48,110.36,110.36,0,0,0,23.33,23.3A110.44,110.44,0,0,0,198.18,174.29Z" style="fill:#1d6a9f;opacity:0.5"/><path d="M198.18,174.29a110.55,110.55,0,0,0-23.32-23.15,110.48,110.48,0,0,0-23.57,23.48,110.36,110.36,0,0,0,23.33,23.3A110.44,110.44,0,0,0,198.18,174.29Z" style="fill:#55207a;opacity:0.20000000298023224"/><path d="M198.18,174.29a110.55,110.55,0,0,0-23.32-23.15,110.48,110.48,0,0,0-23.57,23.48,110.36,110.36,0,0,0,23.33,23.3A110.44,110.44,0,0,0,198.18,174.29Z" style="fill:#68b7e8;opacity:0.30000001192092896"/></svg>